<?xml version="1.0" standalone="no"?>
<!DOCTYPE svg PUBLIC "-//W3C//DTD SVG 20010904//EN"
 "http://www.w3.org/TR/2001/REC-SVG-20010904/DTD/svg10.dtd">
<svg version="1.0" xmlns="http://www.w3.org/2000/svg"
 width="656.000000pt" height="657.000000pt" viewBox="0 0 656.000000 657.000000"
 preserveAspectRatio="xMidYMid meet">
<metadata>
Created by potrace 1.15, written by Peter Selinger 2001-2017
</metadata>
<g transform="translate(0.000000,657.000000) scale(0.100000,-0.100000)"
fill="#ffffff" stroke="none">
<path d="M2905 5701 c-182 -103 -440 -253 -575 -333 -135 -79 -308 -180 -385
-223 -77 -43 -219 -124 -315 -180 -96 -56 -258 -148 -359 -206 -130 -73 -189
-113 -203 -134 -17 -29 -18 -76 -16 -1299 l3 -1268 33 -28 c18 -15 70 -49 115
-75 211 -122 264 -152 321 -183 33 -19 131 -75 216 -125 85 -50 168 -98 183
-106 16 -9 36 -20 45 -26 9 -5 82 -48 162 -94 80 -46 235 -137 345 -201 341
-200 695 -401 742 -421 76 -33 62 -38 408 158 121 69 261 148 310 176 50 28
320 184 600 347 281 164 580 337 665 385 85 49 181 106 213 127 102 69 92 -78
95 1338 3 1117 1 1249 -13 1280 -13 28 -37 47 -128 99 -62 36 -193 112 -292
169 -99 58 -256 149 -350 203 -142 81 -500 289 -627 364 -18 11 -53 31 -78 45
-25 14 -61 35 -80 47 -19 11 -102 59 -185 105 -82 47 -204 116 -271 155 -132
76 -171 93 -218 93 -23 0 -126 -54 -361 -189z m680 -226 c121 -70 224 -130
228 -135 5 -4 -40 -37 -100 -73 -226 -135 -422 -247 -432 -247 -6 0 -105 55
-219 121 -114 67 -225 131 -247 143 -56 31 -85 50 -85 56 0 3 12 12 28 21 15
8 93 55 175 102 81 48 152 87 157 87 5 0 49 22 96 50 l87 49 46 -23 c25 -13
145 -81 266 -151z m-950 -238 c22 -13 132 -77 245 -142 113 -65 217 -125 233
-133 15 -7 27 -17 27 -22 0 -5 -53 -39 -117 -76 -65 -37 -163 -93 -217 -126
-55 -32 -103 -58 -107 -58 -4 0 -30 -16 -58 -35 l-52 -34 -142 83 c-314 183
-407 238 -407 245 0 4 75 51 168 104 92 53 212 124 267 156 55 33 105 60 110
60 6 0 28 -10 50 -22z m1605 -142 c140 -81 259 -150 263 -155 5 -4 -20 -25
-55 -46 -34 -22 -70 -43 -79 -49 -220 -135 -385 -229 -398 -227 -9 2 -34 15
-56 30 -22 14 -65 39 -95 55 -30 16 -80 44 -110 62 -30 18 -108 63 -172 99
-65 37 -118 71 -118 75 0 4 10 13 23 19 30 15 131 73 268 153 152 89 252 140
264 135 6 -2 125 -70 265 -151z m-2237 -293 c247 -141 443 -255 451 -262 4 -4
-3 -11 -15 -15 -13 -4 -26 -11 -29 -15 -5 -7 -206 -121 -325 -185 -39 -21 -95
-53 -126 -71 -31 -19 -60 -34 -63 -34 -5 0 -535 307 -544 315 -2 1 25 19 60
39 35 20 86 50 113 66 28 16 80 46 116 66 37 19 107 62 155 94 49 32 93 59 97
59 4 1 54 -25 110 -57z m1322 34 c22 -14 56 -33 75 -42 19 -10 58 -32 86 -50
28 -17 104 -62 170 -99 65 -37 134 -78 152 -90 l33 -23 -112 -63 c-61 -35
-128 -74 -148 -86 -20 -13 -42 -26 -50 -30 -8 -3 -63 -35 -123 -70 -60 -35
-116 -63 -125 -63 -16 0 -180 91 -310 171 -34 22 -65 39 -68 39 -2 0 -28 15
-57 32 -29 18 -66 40 -83 48 -16 8 -30 20 -29 25 0 6 43 35 95 66 126 75 330
193 349 203 8 4 33 18 55 31 22 13 42 24 45 24 3 0 23 -10 45 -23z m1581 -127
c95 -54 183 -104 195 -111 13 -7 26 -16 29 -19 3 -3 20 -11 38 -18 17 -8 32
-17 32 -21 0 -5 -53 -39 -117 -76 -65 -37 -158 -94 -208 -126 -49 -32 -118
-73 -151 -90 -53 -28 -65 -30 -85 -20 -33 16 -132 72 -144 82 -5 4 -31 19 -57
33 -26 15 -100 57 -164 94 -63 38 -127 74 -141 82 -14 7 -21 17 -16 21 11 11
211 128 314 182 46 25 115 64 153 86 l70 40 40 -20 c23 -11 118 -65 212 -119z
m-2136 -354 c91 -54 206 -120 255 -148 141 -78 137 -67 48 -119 -43 -25 -112
-62 -153 -82 -41 -20 -104 -55 -140 -77 -36 -22 -78 -46 -95 -55 -16 -8 -46
-24 -65 -34 -36 -19 -49 -17 -90 10 -14 10 -126 75 -250 145 -124 70 -229 131
-233 135 -4 4 79 59 185 122 287 171 352 208 363 204 6 -2 84 -47 175 -101z
m1533 -85 c119 -69 216 -128 217 -131 0 -6 -136 -88 -452 -273 l-97 -56 -268
156 c-147 85 -272 159 -276 163 -7 7 141 101 158 101 4 0 19 8 33 19 15 10
101 62 192 114 l164 96 57 -32 c31 -18 154 -88 272 -157z m-2897 67 c71 -41
192 -110 269 -155 l140 -81 3 -315 c1 -174 -1 -316 -4 -316 -3 0 -113 61 -243
136 -130 75 -248 144 -262 152 -19 10 -29 26 -33 51 -6 38 -9 601 -2 601 2 0
61 -33 132 -73z m3874 -242 l0 -316 -31 -17 c-17 -9 -98 -57 -181 -107 -83
-49 -162 -97 -177 -105 -14 -8 -29 -19 -33 -25 -4 -5 -8 -6 -8 -2 0 4 -15 -3
-32 -16 -18 -14 -48 -32 -65 -41 l-33 -17 0 323 1 323 211 120 c116 66 239
136 272 157 34 20 64 37 69 37 4 1 7 -141 7 -314z m-1853 -121 c29 -18 55 -34
57 -34 2 0 45 -25 97 -55 52 -30 131 -76 176 -102 l83 -47 -93 -54 c-50 -30
-146 -82 -212 -117 -66 -34 -151 -81 -188 -103 l-69 -40 -106 60 c-119 68
-435 250 -440 253 -2 2 59 38 135 80 76 43 162 93 190 111 29 19 54 34 56 34
2 0 41 22 87 50 l82 49 45 -25 c25 -14 70 -41 100 -60z m1158 -589 c-6 -22
-531 -332 -542 -321 -4 3 -8 147 -11 319 l-5 312 84 48 c46 26 102 58 124 71
44 26 132 77 225 130 33 19 60 32 60 28 0 -4 6 0 13 9 7 8 21 20 32 27 20 10
20 7 23 -296 1 -169 0 -316 -3 -327z m-2382 491 c128 -73 248 -142 267 -153
l35 -20 3 -317 c2 -284 1 -318 -13 -312 -9 3 -68 37 -133 75 -64 38 -135 79
-157 91 -22 12 -86 49 -142 82 l-103 60 0 314 c0 173 2 314 5 314 3 0 110 -60
238 -134z m1697 -581 l0 -325 -42 -21 c-24 -12 -50 -27 -58 -34 -8 -7 -25 -16
-38 -20 -12 -3 -108 -56 -212 -116 -105 -60 -193 -109 -195 -109 -3 0 -5 143
-5 318 l1 317 32 16 c52 26 252 141 387 223 69 41 126 75 128 76 1 0 2 -146 2
-325z m-2442 214 c86 -50 177 -103 202 -117 25 -13 71 -40 103 -59 l57 -34 0
-315 c0 -173 -2 -314 -4 -314 -2 0 -59 32 -127 72 -229 132 -401 228 -410 228
-5 0 -9 139 -9 321 0 287 2 320 16 315 8 -3 86 -47 172 -97z m1419 -21 c114
-67 232 -135 261 -151 30 -16 55 -34 58 -41 2 -6 3 -150 2 -319 l-3 -307 -270
154 -270 154 -3 273 c-3 245 2 359 13 359 2 0 98 -55 212 -122z m2403 -196 l0
-318 -37 -18 c-21 -10 -83 -46 -138 -81 -55 -34 -136 -82 -180 -105 -44 -24
-82 -47 -85 -50 -3 -4 -18 -13 -35 -21 -16 -8 -42 -23 -57 -33 l-28 -18 0 324
0 324 273 157 c149 86 275 156 280 156 4 1 7 -142 7 -317z m-690 -397 l0 -325
-32 -15 c-18 -8 -50 -25 -70 -37 -28 -17 -392 -228 -440 -255 -5 -2 -8 142 -8
321 0 227 3 326 11 326 6 0 34 15 62 33 29 18 61 38 72 44 42 25 132 77 174
101 25 14 86 49 135 78 50 30 92 54 94 54 1 0 2 -146 2 -325z m-2342 155 l262
-153 0 -313 c0 -173 -2 -314 -4 -314 -4 0 -485 276 -527 303 -18 11 -19 25
-19 318 0 168 3 309 6 312 8 8 -27 27 282 -153z m1654 -782 l-7 -91 -130 -77
c-113 -67 -383 -219 -407 -228 -4 -2 -8 138 -8 311 0 240 3 317 13 325 10 8
303 178 477 277 l55 31 7 -229 c4 -125 4 -269 0 -319z m-2553 505 c36 -21 82
-47 102 -58 20 -11 111 -63 202 -115 l166 -95 1 -318 0 -318 -22 12 c-13 6
-137 77 -275 156 l-253 145 0 314 c0 173 3 314 7 314 3 0 36 -17 72 -37z
m1407 -13 c47 -27 87 -50 91 -50 3 0 20 -10 37 -23 17 -12 51 -33 76 -47 25
-13 88 -49 140 -80 l95 -56 3 -317 c1 -174 0 -317 -2 -317 -2 0 -37 19 -78 43
-40 24 -80 46 -88 50 -8 4 -94 53 -190 110 l-175 102 -7 215 c-7 198 -3 420 9
420 2 0 42 -22 89 -50z m2522 -266 l-3 -315 -115 -67 c-63 -36 -121 -72 -128
-79 -15 -15 -206 -129 -271 -162 l-41 -22 2 327 3 326 175 102 c183 107 360
204 373 205 4 1 6 -141 5 -315z m-3093 -204 c296 -172 317 -184 321 -195 2 -5
3 -149 2 -318 l-3 -307 -270 157 -270 158 -3 318 -2 319 32 -20 c18 -11 105
-61 193 -112z m2405 -194 l0 -324 -57 -34 c-31 -18 -77 -45 -102 -60 -25 -16
-53 -31 -61 -35 -8 -3 -37 -21 -65 -38 -27 -17 -86 -51 -130 -75 -44 -24 -92
-51 -106 -61 l-26 -18 -7 76 c-8 98 -8 374 0 490 l7 91 151 88 c167 96 390
223 394 224 1 0 2 -146 2 -324z m-690 -389 c0 -287 -2 -315 -17 -329 -20 -17
-319 -191 -430 -250 -40 -22 -75 -43 -78 -48 -21 -34 -25 16 -25 308 l0 317
133 74 c72 40 155 88 182 106 28 18 77 47 110 65 33 19 71 42 84 52 13 10 28
18 32 18 5 0 9 -141 9 -313z m-963 147 l263 -149 0 -318 0 -318 -22 12 c-26
13 -221 126 -400 231 l-118 69 0 315 c0 173 3 314 8 311 4 -2 125 -70 269
-153z"/>
</g>
</svg>
