<?xml version="1.0" standalone="no"?>
<!DOCTYPE svg PUBLIC "-//W3C//DTD SVG 20010904//EN"
 "http://www.w3.org/TR/2001/REC-SVG-20010904/DTD/svg10.dtd">
<svg version="1.0" xmlns="http://www.w3.org/2000/svg"
 width="1026.000000pt" height="1026.000000pt" viewBox="0 0 1026.000000 1026.000000"
 preserveAspectRatio="xMidYMid meet">
<metadata>
Created by potrace 1.15, written by Peter Selinger 2001-2017
</metadata>
<g transform="translate(0.000000,1026.000000) scale(0.100000,-0.100000)"
fill="#000000" stroke="none">
<path d="M5041 9179 c-18 -6 -40 -17 -48 -25 -8 -8 -21 -14 -29 -14 -8 0 -14
-4 -14 -9 0 -5 -15 -14 -32 -22 -18 -7 -35 -16 -38 -19 -5 -6 -30 -21 -90 -52
-14 -7 -31 -18 -38 -25 -7 -7 -20 -13 -28 -13 -8 0 -14 -4 -14 -9 0 -5 -16
-15 -35 -21 -19 -6 -35 -16 -35 -21 0 -5 -11 -11 -25 -15 -14 -3 -25 -10 -25
-14 0 -5 -16 -14 -35 -20 -19 -6 -35 -15 -35 -19 0 -3 -12 -12 -27 -18 -16 -7
-35 -17 -43 -22 -54 -36 -399 -231 -408 -231 -7 0 -12 -4 -12 -8 0 -4 -26 -21
-57 -37 -61 -32 -143 -106 -143 -129 0 -8 -6 -16 -12 -18 -10 -4 -14 -107 -16
-461 -2 -251 -5 -457 -8 -457 -3 0 -17 9 -31 20 -14 11 -32 20 -39 20 -8 0
-14 4 -14 9 0 5 -12 14 -27 20 -42 18 -86 43 -101 58 -7 7 -20 13 -28 13 -8 0
-14 5 -14 11 0 5 -4 7 -10 4 -5 -3 -10 -1 -10 4 0 6 -6 11 -14 11 -8 0 -21 6
-28 13 -15 15 -59 40 -100 58 -16 6 -28 14 -28 18 0 4 -16 13 -35 20 -19 7
-35 17 -35 22 0 5 -6 9 -14 9 -8 0 -21 6 -28 13 -8 6 -39 25 -71 42 -31 16
-57 32 -57 36 0 4 -13 10 -30 14 -16 4 -30 10 -30 15 0 10 -11 11 -90 13 -52
1 -140 -26 -140 -44 0 -4 -12 -12 -27 -18 -36 -15 -87 -42 -93 -50 -3 -4 -16
-12 -30 -19 -14 -6 -32 -16 -40 -21 -62 -40 -279 -161 -288 -161 -7 0 -12 -3
-12 -7 0 -5 -26 -21 -57 -38 -32 -16 -63 -35 -69 -40 -6 -6 -33 -22 -60 -35
-27 -14 -51 -28 -54 -31 -5 -6 -35 -22 -90 -51 -14 -7 -27 -16 -30 -20 -3 -4
-17 -12 -30 -18 -14 -6 -43 -21 -65 -34 -22 -13 -63 -36 -92 -51 -29 -15 -54
-34 -58 -42 -3 -9 -12 -13 -21 -9 -9 3 -12 2 -9 -5 4 -6 0 -18 -8 -27 -9 -9
-19 -29 -22 -45 -4 -15 -11 -30 -16 -33 -13 -8 -12 -3864 1 -3864 6 0 10 -8
10 -18 0 -45 60 -100 193 -177 72 -42 139 -80 147 -86 8 -5 26 -15 40 -21 14
-7 27 -15 30 -19 6 -8 57 -35 93 -50 15 -6 27 -15 27 -19 0 -5 16 -14 35 -20
19 -6 35 -16 35 -21 0 -5 6 -9 14 -9 8 0 21 -6 28 -13 7 -7 24 -18 38 -25 60
-31 85 -46 90 -52 3 -3 20 -12 38 -19 17 -8 32 -17 32 -22 0 -5 6 -9 14 -9 8
0 21 -6 28 -12 8 -7 39 -26 71 -43 31 -16 57 -33 57 -37 0 -4 5 -8 12 -8 6 0
57 -27 114 -60 56 -33 107 -60 113 -60 6 0 11 -4 11 -9 0 -5 16 -15 35 -22 19
-7 35 -16 35 -20 0 -4 8 -10 18 -13 9 -4 35 -18 57 -31 22 -14 51 -30 65 -37
14 -7 27 -15 30 -18 3 -4 20 -12 38 -19 17 -8 32 -17 32 -22 0 -5 6 -9 14 -9
8 0 21 -6 28 -12 7 -7 35 -24 62 -38 27 -13 54 -29 60 -35 7 -5 37 -23 69 -40
31 -16 57 -33 57 -37 0 -4 5 -8 12 -8 9 0 236 -126 288 -161 8 -5 27 -15 43
-22 15 -6 27 -15 27 -18 0 -4 16 -13 35 -19 19 -6 35 -15 35 -20 0 -4 11 -11
25 -14 14 -4 25 -10 25 -15 0 -5 16 -15 35 -21 19 -6 35 -16 35 -21 0 -5 6 -9
14 -9 8 0 21 -6 28 -13 7 -7 24 -18 38 -25 60 -31 85 -46 90 -52 3 -3 20 -12
38 -19 17 -8 32 -17 32 -22 0 -5 6 -9 14 -9 8 0 21 -6 28 -13 8 -6 39 -25 71
-42 31 -16 57 -33 57 -37 0 -4 5 -8 12 -8 6 0 57 -27 114 -60 56 -33 107 -60
113 -60 6 0 11 -4 11 -9 0 -5 16 -15 35 -21 19 -6 35 -16 35 -21 0 -5 11 -11
25 -15 14 -3 25 -10 25 -14 0 -4 12 -13 28 -19 31 -13 85 -43 92 -52 3 -3 23
-12 45 -20 22 -7 44 -17 50 -21 12 -11 88 -10 100 0 6 5 29 15 53 22 23 7 42
17 42 21 0 4 12 12 28 18 41 18 85 43 100 58 7 7 20 13 28 13 8 0 14 4 14 9 0
5 16 15 35 21 19 6 35 16 35 21 0 5 6 9 14 9 8 0 21 6 28 14 8 7 24 16 36 20
12 4 28 13 35 19 6 7 39 26 72 42 33 17 64 35 71 40 6 6 33 22 60 35 27 14 54
30 60 35 6 6 33 22 60 35 27 14 54 30 60 35 6 6 33 22 60 35 27 14 55 31 62
38 7 6 20 12 28 12 8 0 14 4 14 9 0 5 16 15 35 21 19 6 35 16 35 21 0 5 11 11
25 15 14 3 25 10 25 14 0 4 13 13 30 20 41 17 98 85 106 126 3 19 10 37 15 40
5 3 9 198 9 440 l0 434 28 -17 c15 -10 29 -20 32 -23 3 -3 31 -18 62 -35 32
-16 58 -33 58 -37 0 -5 5 -8 12 -8 9 0 236 -126 288 -161 8 -5 27 -15 43 -22
15 -6 27 -15 27 -18 0 -4 16 -13 35 -19 19 -6 35 -16 35 -21 0 -5 6 -9 14 -9
8 0 21 -6 28 -13 7 -7 36 -24 63 -37 67 -33 161 -33 225 0 25 12 47 25 50 29
3 3 32 20 65 36 33 17 62 33 65 36 10 12 217 129 228 129 7 0 12 3 12 8 0 4
26 21 57 37 32 17 64 36 71 43 7 6 20 12 28 12 8 0 14 4 14 9 0 5 15 14 33 22
17 7 34 16 37 19 5 7 32 22 90 52 14 7 27 15 30 18 3 3 16 11 30 18 14 6 32
16 40 21 8 6 49 29 90 53 41 23 77 45 80 48 3 3 27 16 53 30 26 14 56 36 65
49 9 13 22 29 29 36 7 7 15 24 19 39 3 14 10 26 15 26 5 0 9 806 9 1930 0
1096 -4 1930 -9 1930 -5 0 -11 14 -15 31 -3 16 -13 37 -21 46 -9 9 -14 22 -11
30 3 8 1 11 -4 8 -9 -6 -71 32 -78 48 -2 4 -8 5 -13 1 -5 -3 -9 0 -9 5 0 6 -6
11 -14 11 -8 0 -21 6 -28 13 -7 7 -38 26 -68 41 -30 16 -57 32 -60 35 -3 4
-20 13 -37 20 -18 8 -33 17 -33 22 0 5 -6 9 -14 9 -8 0 -21 6 -28 13 -8 6 -39
25 -71 42 -31 16 -57 33 -57 37 0 4 -5 8 -11 8 -5 0 -57 27 -114 60 -57 33
-109 60 -114 60 -6 0 -11 4 -11 8 0 4 -24 20 -52 36 -29 15 -71 39 -93 52 -22
13 -51 29 -65 36 -14 7 -27 15 -30 18 -3 3 -16 11 -30 18 -58 30 -85 45 -90
52 -3 3 -20 12 -37 19 -18 8 -33 17 -33 22 0 5 -6 9 -14 9 -8 0 -21 6 -28 13
-7 6 -39 26 -71 42 -31 17 -57 33 -57 38 0 4 -5 7 -12 7 -9 0 -226 121 -288
161 -8 5 -26 15 -40 21 -14 7 -27 15 -30 19 -6 8 -57 35 -92 50 -16 6 -28 15
-28 19 0 5 -16 14 -35 20 -19 6 -35 16 -35 21 0 5 -6 9 -14 9 -8 0 -21 6 -28
13 -15 15 -59 40 -100 58 -16 6 -28 14 -28 18 0 4 -16 13 -35 20 -19 7 -35 17
-35 22 0 5 -6 9 -14 9 -8 0 -21 6 -28 13 -8 6 -39 25 -71 42 -31 16 -57 33
-57 37 0 4 -5 8 -12 8 -6 0 -57 27 -114 60 -56 33 -107 60 -113 60 -6 0 -11 4
-11 9 0 5 -16 15 -35 22 -19 7 -35 16 -35 20 0 4 -8 10 -17 13 -10 4 -36 18
-58 31 -22 14 -51 30 -65 37 -14 7 -27 15 -30 18 -3 4 -20 12 -37 19 -18 8
-33 17 -33 22 0 5 -6 9 -14 9 -8 0 -21 6 -28 13 -7 7 -28 19 -45 26 -18 7 -33
17 -33 22 0 5 -6 9 -14 9 -8 0 -21 6 -28 13 -8 6 -39 25 -71 42 -31 16 -57 33
-57 37 0 4 -5 8 -12 8 -6 0 -43 18 -80 41 -58 34 -79 41 -136 44 -37 3 -82 0
-101 -6z m257 -439 c87 -50 164 -95 172 -101 8 -5 27 -15 43 -22 15 -6 27 -15
27 -18 0 -4 16 -13 35 -19 19 -6 35 -16 35 -21 0 -5 6 -9 14 -9 8 0 21 -6 28
-13 15 -15 59 -40 101 -58 15 -6 27 -14 27 -18 0 -4 16 -13 35 -20 19 -7 35
-17 35 -22 0 -5 6 -9 14 -9 8 0 21 -6 28 -12 7 -7 34 -24 60 -37 50 -25 53
-40 10 -59 -26 -11 -71 -36 -158 -87 -41 -24 -43 -25 -49 -5 -9 29 -54 60 -87
60 -17 0 -59 -18 -97 -40 -37 -22 -73 -40 -79 -40 -7 0 -12 -4 -12 -8 0 -4
-26 -21 -57 -37 -32 -17 -60 -33 -63 -36 -3 -4 -30 -19 -60 -35 -30 -15 -61
-34 -68 -41 -7 -7 -20 -13 -28 -13 -8 0 -14 -4 -14 -9 0 -5 -15 -14 -32 -22
-18 -7 -35 -15 -38 -19 -3 -3 -16 -11 -30 -18 -64 -33 -86 -46 -92 -56 -5 -7
-8 -7 -8 -1 0 6 -16 17 -35 24 -19 7 -35 17 -35 22 0 5 -6 9 -14 9 -8 0 -21 6
-28 13 -8 6 -39 25 -71 42 -31 16 -57 33 -57 37 0 4 -5 8 -12 8 -6 0 -68 33
-138 74 -70 41 -146 85 -169 98 -23 13 -58 33 -79 46 -20 12 -49 28 -64 34
-15 7 -29 17 -32 23 -4 11 180 125 203 125 6 0 11 3 11 8 0 4 26 21 57 37 32
17 64 36 71 43 7 6 20 12 28 12 8 0 14 4 14 9 0 5 16 15 35 22 19 7 35 16 35
20 0 4 12 12 28 18 35 15 86 42 92 50 3 4 16 12 30 19 14 6 32 16 40 21 8 6
49 29 90 53 41 23 77 45 80 49 7 9 32 17 53 18 11 1 89 -40 175 -89z m980
-567 c7 -7 24 -16 38 -19 13 -3 24 -10 24 -14 0 -4 8 -11 18 -14 9 -4 35 -18
57 -31 22 -14 51 -30 65 -37 14 -7 27 -15 30 -18 3 -4 20 -12 38 -19 17 -8 32
-17 32 -22 0 -5 6 -9 14 -9 8 0 21 -6 28 -13 7 -7 28 -19 46 -26 17 -7 32 -17
32 -22 0 -5 6 -9 14 -9 8 0 21 -6 28 -12 7 -7 39 -26 71 -43 31 -16 57 -33 57
-37 0 -5 5 -8 11 -8 7 0 56 -26 110 -57 105 -61 104 -59 39 -89 -8 -4 -83 -47
-166 -96 -82 -48 -155 -88 -162 -88 -7 0 -12 -3 -12 -7 0 -5 -26 -21 -57 -38
-32 -16 -64 -36 -71 -42 -7 -7 -20 -13 -28 -13 -8 0 -14 -5 -14 -11 0 -5 -4
-7 -10 -4 -5 3 -10 2 -10 -4 0 -5 -10 -13 -22 -17 -13 -4 -25 -10 -28 -14 -6
-8 -54 -35 -92 -51 -16 -6 -28 -15 -28 -20 0 -5 -6 -9 -14 -9 -13 0 -146 218
-146 240 0 5 -4 10 -9 10 -5 0 -15 15 -22 33 -7 17 -19 38 -26 45 -7 7 -13 20
-13 28 0 8 -4 14 -9 14 -5 0 -15 16 -21 35 -6 19 -16 35 -21 35 -5 0 -11 11
-15 25 -3 14 -9 25 -13 25 -4 0 -13 16 -20 35 -7 19 -17 35 -22 35 -5 0 -9 5
-9 11 0 6 -22 49 -50 96 -54 91 -58 103 -36 103 8 0 16 3 18 8 4 9 53 37 91
53 15 6 27 15 27 20 0 5 6 9 13 9 6 1 48 22 92 48 78 47 81 48 110 33 16 -9
35 -22 43 -28z m-628 -178 c6 -19 16 -35 21 -35 5 0 11 -11 15 -25 3 -14 10
-25 14 -25 5 0 14 -16 20 -35 6 -19 15 -35 19 -35 3 0 12 -12 18 -27 7 -16 17
-35 22 -43 45 -70 98 -169 94 -174 -4 -3 -2 -6 3 -6 5 0 23 -26 39 -57 17 -32
36 -63 43 -71 6 -7 12 -20 12 -28 0 -8 3 -14 8 -14 4 0 21 -26 37 -57 17 -32
36 -64 43 -71 6 -7 12 -20 12 -28 0 -8 5 -14 11 -14 5 0 7 -4 4 -10 -3 -5 -2
-10 4 -10 6 0 13 -11 17 -25 3 -14 10 -25 14 -25 4 0 13 -12 19 -27 16 -37 43
-87 51 -93 3 -3 12 -20 19 -37 8 -18 17 -33 22 -33 5 0 9 -5 9 -11 0 -7 13
-34 30 -60 16 -27 25 -49 19 -49 -6 0 -56 -27 -112 -59 -56 -33 -106 -61 -112
-62 -5 -2 -16 -9 -23 -16 -7 -7 -20 -13 -28 -13 -8 0 -14 -3 -14 -7 0 -5 -26
-21 -57 -38 -32 -16 -64 -35 -70 -42 -7 -6 -23 -15 -35 -19 -12 -4 -28 -13
-36 -20 -7 -8 -20 -14 -28 -14 -8 0 -14 -4 -14 -9 0 -5 -12 -14 -27 -20 -29
-12 -85 -42 -93 -51 -3 -3 -16 -11 -30 -18 -14 -7 -43 -23 -65 -37 -89 -54
-101 -55 -164 -18 -50 29 -61 42 -99 112 -13 25 -27 48 -31 51 -3 3 -12 16
-19 30 -6 14 -16 32 -21 40 -48 76 -231 399 -231 408 0 7 -3 12 -7 12 -5 0
-21 26 -38 57 -16 32 -36 64 -42 71 -7 7 -13 20 -13 28 0 8 -4 14 -9 14 -5 0
-14 15 -22 33 -7 17 -16 34 -19 37 -7 5 -22 32 -52 90 -7 14 -15 27 -19 30 -5
4 -39 70 -39 75 0 2 15 9 33 16 17 7 38 19 45 26 7 7 20 13 28 13 8 0 14 4 14
9 0 5 16 15 35 21 19 6 35 16 35 21 0 5 11 11 25 15 14 3 25 10 25 14 0 4 11
11 24 14 14 3 31 12 38 19 7 7 24 18 38 25 14 6 32 16 40 21 44 28 383 223
398 228 9 4 19 9 22 13 9 12 95 60 107 60 6 0 17 -16 23 -35z m-2597 -455 c47
-27 90 -50 96 -50 6 0 11 -4 11 -9 0 -5 16 -15 35 -22 19 -7 35 -16 35 -20 0
-4 8 -10 18 -13 9 -4 35 -18 57 -31 22 -14 51 -30 65 -37 14 -7 27 -15 30 -18
3 -4 20 -12 38 -19 17 -8 32 -17 32 -22 0 -5 6 -9 14 -9 8 0 21 -6 28 -13 7
-7 28 -19 46 -26 17 -7 32 -17 32 -22 0 -5 6 -9 14 -9 8 0 21 -6 28 -12 7 -7
35 -24 62 -38 27 -13 54 -29 60 -35 6 -5 29 -18 51 -28 l39 -19 -22 -16 c-12
-10 -48 -30 -79 -47 -32 -16 -63 -35 -69 -40 -6 -6 -33 -22 -60 -35 -27 -14
-51 -28 -54 -31 -5 -6 -35 -22 -90 -51 -14 -7 -27 -16 -30 -20 -3 -4 -17 -12
-30 -18 -14 -6 -43 -21 -65 -34 -22 -13 -64 -36 -92 -51 -29 -16 -53 -32 -53
-37 0 -4 -5 -8 -11 -8 -5 0 -57 -27 -114 -60 -57 -33 -110 -60 -118 -60 -8 0
-25 8 -38 19 -13 10 -34 21 -46 25 -13 4 -23 12 -23 17 0 5 -6 9 -14 9 -8 0
-21 6 -28 14 -8 7 -24 16 -36 20 -12 4 -28 13 -35 19 -6 7 -38 26 -70 42 -31
17 -57 33 -57 38 0 4 -6 7 -14 7 -8 0 -22 8 -32 18 -10 9 -18 15 -18 12 -1 -4
-183 97 -236 131 -8 5 -26 15 -40 21 -14 7 -27 15 -30 19 -6 8 -57 35 -92 50
-16 6 -28 14 -28 18 0 5 -10 13 -22 19 -22 10 -21 11 20 28 23 9 42 21 42 26
0 4 5 8 11 8 6 0 57 27 113 60 57 33 108 60 114 60 7 0 12 4 12 8 0 4 26 21
57 37 32 17 62 35 69 40 6 6 33 22 60 35 27 14 51 28 54 31 3 3 30 19 60 35
30 16 60 35 68 42 7 6 20 12 28 12 8 0 14 4 14 9 0 5 15 15 34 21 19 6 36 15
38 19 3 7 56 38 70 40 3 1 44 -21 91 -49z m4269 33 c18 -10 34 -21 36 -25 2
-4 19 -12 38 -18 19 -6 34 -16 34 -21 0 -5 6 -9 14 -9 8 0 21 -6 28 -13 15
-15 59 -40 101 -58 15 -6 27 -14 27 -18 0 -4 16 -13 35 -20 19 -7 35 -17 35
-22 0 -5 6 -9 14 -9 8 0 21 -6 28 -12 8 -7 39 -26 71 -43 31 -16 57 -33 57
-37 0 -4 5 -8 12 -8 6 0 57 -27 114 -60 56 -33 107 -60 113 -60 6 0 11 -4 11
-9 0 -5 19 -17 43 -26 40 -17 41 -18 20 -28 -13 -5 -23 -14 -23 -19 0 -4 -5
-8 -11 -8 -5 0 -99 -51 -207 -114 -108 -63 -200 -114 -203 -113 -3 1 -13 -6
-23 -15 -10 -10 -24 -18 -32 -18 -8 0 -14 -3 -14 -7 0 -5 -26 -21 -58 -38 -31
-16 -58 -33 -60 -37 -2 -4 -19 -12 -38 -18 -19 -6 -34 -16 -34 -21 0 -5 -6 -9
-14 -9 -8 0 -21 -7 -30 -15 -8 -8 -25 -20 -38 -25 -13 -6 -35 -18 -50 -26 -27
-14 -78 -10 -78 6 0 5 -16 14 -35 21 -19 7 -35 16 -35 20 0 4 -12 12 -27 18
-42 18 -86 43 -101 58 -7 7 -20 13 -28 13 -8 0 -14 5 -14 11 0 5 -4 7 -10 4
-5 -3 -10 -1 -10 4 0 6 -6 11 -14 11 -8 0 -21 6 -28 13 -7 6 -39 26 -71 42
-31 17 -57 33 -57 36 0 4 -11 10 -25 13 -14 4 -25 11 -25 17 0 6 -4 7 -10 4
-5 -3 -10 -1 -10 4 0 6 -5 11 -11 11 -10 0 -149 78 -159 89 -3 3 -31 20 -62
36 -113 59 -112 54 -10 113 49 29 95 52 101 52 6 0 11 4 11 8 0 4 26 21 57 37
32 17 63 36 71 43 7 6 20 12 28 12 8 0 14 4 14 9 0 5 16 15 35 22 19 7 35 16
35 20 0 4 12 12 28 18 41 18 85 43 100 58 7 7 20 13 28 13 8 0 14 4 14 9 0 5
11 12 24 15 14 3 31 12 38 19 7 7 24 18 38 25 46 22 135 74 145 83 13 12 19
12 57 -8z m-3239 -625 c23 -13 44 -26 47 -29 6 -7 55 -34 93 -51 15 -7 27 -16
27 -19 0 -4 16 -13 35 -19 19 -6 35 -16 35 -21 0 -5 6 -9 14 -9 8 0 21 -6 28
-13 15 -15 59 -40 101 -58 15 -6 27 -14 27 -18 0 -4 16 -13 35 -20 19 -7 35
-17 35 -22 0 -5 6 -9 14 -9 8 0 21 -6 28 -12 8 -7 39 -26 71 -43 31 -16 57
-33 57 -37 0 -4 5 -8 11 -8 16 0 178 -93 179 -102 0 -4 -11 -10 -25 -14 -14
-3 -25 -10 -25 -14 0 -4 -15 -14 -32 -21 -18 -7 -39 -19 -46 -26 -7 -7 -20
-13 -28 -13 -8 0 -14 -4 -14 -9 0 -5 -16 -15 -35 -21 -19 -6 -35 -16 -35 -21
0 -5 -11 -11 -25 -15 -14 -3 -25 -9 -25 -13 0 -4 -30 -23 -66 -42 -110 -57
-119 -62 -124 -69 -3 -4 -15 -10 -27 -14 -13 -4 -23 -11 -23 -16 0 -4 -12 -13
-27 -19 -16 -6 -35 -15 -43 -20 -43 -28 -228 -131 -234 -131 -4 0 -14 -6 -22
-14 -15 -16 -47 -11 -65 10 -6 8 -17 14 -24 14 -6 0 -22 9 -35 20 -13 11 -29
20 -37 20 -7 0 -13 4 -13 9 0 5 -15 15 -34 21 -19 6 -36 14 -38 18 -2 4 -29
21 -60 37 -32 17 -58 33 -58 38 0 4 -6 7 -14 7 -8 0 -21 6 -28 13 -8 6 -39 25
-71 42 -31 16 -57 32 -57 35 0 3 -16 12 -35 19 -19 7 -35 17 -35 22 0 5 -5 9
-11 9 -5 0 -57 27 -114 60 -57 33 -109 60 -114 60 -6 0 -11 4 -11 9 0 5 -9 13
-20 16 -27 9 -25 24 6 35 14 6 32 17 40 25 9 8 22 15 30 15 8 0 14 4 14 8 0 4
16 14 35 21 19 7 35 17 35 22 0 5 5 9 11 9 6 0 57 27 113 60 57 33 108 60 114
60 7 0 12 4 12 8 0 4 26 21 57 37 32 17 63 36 71 43 7 6 20 12 28 12 8 0 14 4
14 9 0 5 15 15 33 22 17 7 38 19 45 26 7 7 20 13 28 13 8 0 14 4 14 9 0 5 16
15 35 21 19 6 35 15 35 20 0 5 10 12 22 16 12 3 28 13 36 20 17 18 16 18 65
-8z m-2043 -69 c7 -9 107 -66 143 -81 15 -7 27 -16 27 -19 0 -4 16 -13 35 -19
19 -6 35 -15 35 -20 0 -4 11 -11 25 -14 14 -4 25 -10 25 -15 0 -5 16 -15 35
-21 19 -6 35 -16 35 -21 0 -5 6 -9 14 -9 8 0 21 -6 28 -13 7 -7 28 -19 46 -26
17 -7 32 -17 32 -22 0 -5 6 -9 14 -9 8 0 21 -6 28 -13 7 -7 28 -19 46 -26 17
-7 32 -17 32 -22 0 -5 6 -9 14 -9 8 0 21 -6 28 -12 8 -7 39 -26 71 -43 31 -16
57 -32 57 -36 0 -4 11 -10 25 -13 l25 -6 0 -510 c0 -481 -1 -509 -17 -503 -10
3 -25 12 -33 18 -8 7 -25 16 -37 19 -13 4 -23 11 -23 16 0 4 -11 11 -25 14
-14 4 -25 10 -25 15 0 5 -16 15 -35 21 -19 6 -35 16 -35 21 0 5 -6 9 -14 9 -8
0 -21 6 -28 13 -7 7 -28 19 -45 26 -18 7 -33 17 -33 22 0 5 -6 9 -14 9 -8 0
-21 6 -28 13 -8 6 -39 25 -71 42 -31 16 -57 33 -57 37 0 4 -5 8 -12 8 -9 0
-179 93 -238 131 -8 5 -26 15 -40 21 -14 7 -31 18 -38 25 -7 7 -18 13 -23 13
-5 0 -9 203 -9 510 l0 510 28 -13 c15 -6 29 -15 32 -18z m6220 -987 c-6 -2
-17 -10 -24 -18 -8 -8 -17 -14 -21 -14 -3 0 -53 -27 -110 -60 -57 -33 -109
-60 -114 -60 -6 0 -11 -4 -11 -9 0 -5 -16 -15 -35 -22 -19 -7 -35 -16 -35 -19
0 -4 -26 -20 -57 -36 -32 -15 -64 -34 -71 -41 -7 -7 -20 -13 -28 -13 -8 0 -14
-4 -14 -9 0 -5 -15 -14 -32 -22 -18 -7 -35 -15 -38 -18 -8 -9 -62 -40 -92 -52
-16 -6 -28 -15 -28 -19 0 -4 -11 -11 -25 -14 -14 -4 -25 -11 -25 -16 0 -6 -6
-10 -14 -10 -7 0 -24 -8 -37 -18 -13 -10 -32 -21 -41 -25 -17 -6 -18 22 -18
501 l0 507 134 78 c73 42 138 77 144 77 7 0 12 4 12 8 0 4 26 21 57 37 32 17
63 36 71 43 7 6 20 12 28 12 8 0 14 4 14 9 0 5 15 15 33 22 17 7 38 19 45 26
7 7 20 13 28 13 8 0 14 4 14 9 0 5 15 14 33 22 17 7 34 15 37 19 3 3 16 11 30
18 59 31 86 46 98 59 7 7 20 13 28 13 8 0 14 4 14 8 0 5 12 12 28 18 l27 9 3
-505 c1 -339 -1 -506 -8 -508z m-1827 743 c18 -33 35 -61 39 -63 4 -2 12 -19
18 -38 6 -19 16 -34 21 -34 5 0 9 -6 9 -14 0 -8 6 -21 13 -28 7 -7 26 -39 42
-70 16 -32 33 -58 37 -58 4 0 8 -5 8 -11 0 -5 27 -57 60 -114 33 -57 60 -109
60 -114 0 -6 4 -11 8 -11 4 0 21 -26 37 -57 17 -32 33 -60 36 -63 6 -5 22 -35
51 -90 7 -14 16 -27 20 -30 4 -3 12 -17 18 -30 6 -14 21 -43 34 -65 13 -22 34
-59 46 -83 12 -23 27 -48 34 -55 6 -7 17 -24 23 -39 12 -26 11 -28 -12 -34
-14 -3 -25 -10 -25 -14 0 -4 -12 -13 -27 -19 -16 -6 -35 -15 -43 -20 -57 -37
-229 -131 -238 -131 -7 0 -12 -4 -12 -8 0 -4 -26 -21 -57 -37 -32 -17 -63 -36
-71 -42 -7 -7 -20 -13 -28 -13 -8 0 -14 -4 -14 -9 0 -5 -15 -15 -32 -22 -18
-7 -39 -19 -46 -26 -7 -7 -20 -13 -28 -13 -8 0 -14 -4 -14 -9 0 -5 -16 -15
-35 -22 -19 -7 -35 -17 -35 -21 0 -4 -4 -8 -10 -8 -6 0 -10 128 -10 365 0 425
5 402 -107 467 -37 21 -75 44 -83 49 -8 5 -27 15 -42 22 -16 6 -28 14 -28 18
0 4 -15 12 -32 20 -18 7 -35 15 -38 18 -8 9 -62 40 -92 52 -16 6 -28 15 -28
19 0 4 -11 11 -25 14 -14 4 -25 10 -25 15 0 5 -16 15 -35 21 -19 6 -35 16 -35
21 0 5 -5 9 -11 9 -7 0 -27 10 -46 21 l-35 22 53 33 c30 19 64 37 77 40 12 3
22 9 22 13 0 4 26 20 57 36 32 17 63 36 71 43 7 6 20 12 28 12 8 0 14 4 14 9
0 5 16 15 35 22 19 7 35 16 35 19 0 3 26 19 57 35 32 17 63 36 71 43 7 6 20
12 28 12 8 0 14 4 14 9 0 5 16 15 35 21 19 6 35 16 35 21 0 5 11 11 25 15 14
3 25 10 25 14 0 9 50 30 63 26 5 -1 23 -28 40 -61z m-1266 -315 c14 -11 32
-20 39 -20 8 0 14 -4 14 -8 0 -4 16 -14 35 -21 19 -7 35 -17 35 -22 0 -5 6 -9
14 -9 8 0 21 -6 28 -13 7 -7 28 -19 46 -26 17 -7 32 -17 32 -21 0 -4 11 -11
25 -14 14 -4 25 -11 25 -16 0 -6 5 -10 12 -10 9 0 343 -188 408 -230 8 -6 26
-16 40 -22 14 -7 27 -16 30 -20 3 -4 19 -12 35 -18 l29 -11 -59 -34 c-33 -19
-66 -35 -72 -35 -7 0 -13 -4 -13 -10 0 -5 -11 -12 -25 -16 -14 -3 -25 -9 -25
-13 0 -3 -26 -19 -57 -36 -32 -16 -64 -36 -71 -42 -7 -7 -19 -13 -26 -13 -7 0
-23 -9 -36 -20 -13 -11 -29 -20 -37 -20 -7 0 -13 -4 -13 -9 0 -5 -12 -14 -27
-20 -37 -16 -87 -43 -93 -51 -3 -3 -20 -12 -37 -19 -18 -8 -33 -17 -33 -22 0
-5 -5 -9 -11 -9 -6 0 -57 -27 -113 -60 -57 -33 -108 -60 -114 -60 -6 0 -12 -6
-14 -12 -3 -9 -19 -5 -54 12 -27 14 -51 28 -54 31 -7 9 -108 66 -142 81 -16 7
-28 16 -28 19 0 4 -16 13 -35 19 -19 6 -35 15 -35 20 0 4 -11 11 -25 14 -14 4
-25 10 -25 15 0 5 -16 15 -35 21 -19 6 -35 16 -35 21 0 5 -6 9 -14 9 -8 0 -21
6 -28 14 -8 7 -24 16 -36 20 -12 4 -28 13 -35 19 -6 7 -38 26 -70 42 -31 17
-57 33 -57 36 0 4 -11 10 -25 13 -14 4 -25 11 -25 16 0 6 -6 10 -12 10 -7 0
-40 16 -73 35 l-59 34 29 11 c16 6 32 14 35 18 3 4 16 13 30 20 46 22 135 74
140 81 3 4 20 13 38 20 17 8 32 17 32 22 0 5 5 9 11 9 6 0 57 27 113 60 57 33
108 60 114 60 7 0 12 4 12 8 0 4 26 21 57 37 32 17 63 36 71 43 7 6 20 12 28
12 8 0 14 4 14 9 0 5 16 15 35 22 19 7 35 16 35 20 0 4 10 11 22 15 12 3 28
13 36 20 19 20 50 17 79 -6z m-2037 -72 c0 -4 6 -8 14 -8 8 0 21 -6 28 -13 15
-15 59 -40 101 -58 15 -6 27 -14 27 -18 0 -4 16 -13 35 -20 19 -7 35 -17 35
-22 0 -5 6 -9 14 -9 8 0 21 -6 28 -12 8 -7 39 -26 71 -43 31 -16 57 -33 57
-37 0 -4 5 -8 11 -8 7 0 74 -36 150 -80 76 -44 142 -80 147 -80 6 0 12 -4 14
-8 2 -4 20 -18 41 -31 l37 -23 0 -504 c0 -441 -2 -504 -15 -504 -8 0 -15 4
-15 9 0 5 -15 14 -32 22 -18 7 -35 16 -38 20 -6 8 -106 66 -142 81 -16 7 -28
16 -28 19 0 4 -16 13 -35 19 -19 6 -35 15 -35 20 0 4 -11 11 -25 14 -14 4 -25
10 -25 15 0 5 -16 15 -35 21 -19 6 -35 15 -35 20 0 4 -11 11 -25 14 -14 4 -25
11 -25 16 0 6 -5 10 -11 10 -7 0 -90 45 -185 101 l-174 101 0 508 0 508 35
-16 c19 -9 35 -20 35 -24z m-1105 -611 c17 -9 41 -22 55 -29 14 -7 27 -15 30
-18 3 -4 20 -12 38 -19 17 -8 32 -17 32 -21 0 -4 11 -11 25 -14 14 -4 25 -10
25 -15 0 -5 16 -15 35 -21 19 -6 35 -16 35 -21 0 -5 6 -9 14 -9 8 0 22 -7 30
-16 9 -8 16 -13 16 -10 0 4 357 -200 410 -234 8 -6 26 -16 40 -22 52 -26 50
-3 50 -542 l0 -505 -59 34 c-33 19 -64 35 -70 35 -6 0 -11 4 -11 9 0 5 -16 15
-35 22 -19 7 -35 17 -35 21 0 4 -6 8 -14 8 -8 0 -21 6 -28 13 -15 15 -59 40
-100 58 -16 6 -28 14 -28 18 0 4 -16 13 -35 20 -19 7 -35 17 -35 22 0 5 -6 9
-14 9 -8 0 -21 6 -28 13 -8 6 -39 25 -71 42 -31 16 -57 33 -57 37 0 4 -5 8
-11 8 -6 0 -64 30 -130 68 l-118 67 -1 515 c0 283 4 510 8 504 4 -6 21 -18 37
-27z m2173 -1 c12 -4 22 -12 22 -17 0 -5 6 -9 14 -9 8 0 21 -6 28 -14 8 -7 24
-16 36 -20 12 -4 28 -13 35 -19 6 -7 38 -25 70 -42 31 -16 57 -33 57 -37 0 -5
6 -8 14 -8 8 0 22 -7 30 -16 9 -8 16 -13 16 -10 0 6 100 -52 110 -63 3 -4 32
-19 65 -36 33 -16 66 -35 72 -42 7 -6 23 -15 36 -19 12 -4 24 -10 27 -14 6 -8
54 -35 93 -51 15 -6 27 -15 27 -19 0 -4 11 -11 25 -14 14 -4 25 -11 25 -17 0
-6 5 -7 10 -4 7 4 10 -168 10 -509 l0 -515 -119 69 c-66 39 -124 70 -130 70
-6 0 -11 4 -11 9 0 5 -12 14 -27 20 -37 15 -87 44 -91 53 -2 4 -19 12 -38 18
-19 6 -34 16 -34 21 0 5 -6 9 -14 9 -8 0 -21 6 -28 13 -15 15 -59 40 -100 58
-16 6 -28 14 -28 18 0 4 -16 13 -35 20 -19 7 -35 17 -35 22 0 5 -6 9 -14 9 -8
0 -21 6 -28 13 -7 7 -25 18 -40 24 -15 7 -45 24 -67 38 l-41 25 0 512 c0 486
1 510 18 496 9 -9 27 -19 40 -22z m1891 -998 c-12 -10 -27 -18 -35 -18 -8 0
-14 -4 -14 -9 0 -5 -15 -15 -32 -22 -18 -7 -39 -19 -46 -26 -7 -7 -20 -13 -28
-13 -8 0 -14 -4 -14 -9 0 -5 -15 -14 -32 -22 -18 -7 -35 -15 -38 -19 -3 -3
-16 -11 -30 -18 -14 -7 -43 -23 -65 -37 -22 -13 -48 -27 -57 -31 -10 -3 -18
-9 -18 -13 0 -4 -16 -13 -35 -20 -19 -7 -35 -17 -35 -22 0 -5 -5 -9 -11 -9 -6
0 -57 -27 -113 -60 -57 -33 -108 -60 -114 -60 -7 0 -12 -4 -12 -8 0 -4 -26
-21 -57 -37 -32 -17 -61 -34 -65 -40 -4 -5 -8 223 -8 508 0 343 3 516 10 512
6 -3 10 -2 10 4 0 6 11 13 25 17 14 3 25 10 25 14 0 4 12 13 28 19 34 14 82
42 100 59 7 6 20 12 27 12 7 0 20 6 27 13 7 7 24 18 38 25 60 29 135 75 138
83 2 5 8 9 14 9 5 0 72 36 148 81 77 44 142 79 146 79 4 -1 10 2 13 7 3 6 33
25 66 45 l60 34 3 -505 c2 -506 2 -506 -19 -523z m2181 516 c0 -341 -3 -513
-10 -509 -5 3 -10 2 -10 -2 0 -5 -26 -22 -57 -38 -32 -17 -63 -36 -71 -42 -7
-7 -20 -13 -28 -13 -8 0 -14 -4 -14 -9 0 -5 -16 -15 -35 -22 -19 -7 -35 -16
-35 -20 0 -4 -10 -11 -22 -15 -12 -3 -28 -13 -36 -21 -8 -8 -19 -12 -25 -10
-14 4 -117 176 -117 195 0 6 -3 12 -7 12 -5 0 -21 26 -38 57 -16 32 -36 64
-42 71 -7 7 -13 20 -13 28 0 8 -4 14 -9 14 -5 0 -15 16 -21 35 -6 19 -16 35
-21 35 -5 0 -11 11 -15 25 -3 14 -10 25 -14 25 -5 0 -14 16 -20 35 -6 19 -15
35 -19 35 -3 0 -12 12 -18 28 -7 15 -17 34 -22 42 -27 43 -72 122 -69 124 32
14 84 43 92 51 6 6 22 16 36 23 14 6 32 16 40 21 61 39 236 135 243 133 4 -1
7 2 7 6 0 4 26 21 57 37 32 17 63 36 71 43 7 6 20 12 28 12 8 0 14 4 14 9 0 5
15 15 33 22 17 7 38 19 45 26 7 7 20 13 28 13 8 0 14 4 14 9 0 5 16 15 35 21
19 6 35 16 35 21 0 5 2 9 5 9 3 0 5 -232 5 -516z m-1102 196 c4 0 21 -26 37
-57 17 -32 36 -64 43 -71 6 -7 12 -20 12 -28 0 -8 4 -14 9 -14 5 0 15 -16 22
-35 7 -19 16 -35 20 -35 4 0 12 -12 18 -27 15 -36 42 -87 50 -93 4 -3 12 -16
19 -30 6 -14 16 -32 21 -40 40 -62 161 -279 161 -288 0 -7 3 -12 8 -12 4 0 21
-26 37 -57 17 -32 36 -64 43 -71 6 -7 12 -20 12 -28 0 -8 4 -14 9 -14 5 0 15
-16 21 -35 6 -19 16 -35 21 -35 5 0 11 -11 15 -25 3 -14 10 -25 14 -25 5 0 14
-16 20 -35 6 -19 16 -35 21 -35 28 0 -20 -59 -48 -60 -7 0 -13 -4 -13 -8 0 -4
-16 -14 -35 -21 -19 -7 -35 -17 -35 -22 0 -5 -5 -9 -11 -9 -6 0 -57 -27 -113
-60 -57 -33 -108 -60 -114 -60 -7 0 -12 -4 -12 -8 0 -4 -26 -21 -57 -37 -32
-17 -63 -36 -71 -42 -7 -7 -20 -13 -28 -13 -8 0 -14 -4 -14 -9 0 -5 -16 -15
-35 -22 -19 -7 -35 -16 -35 -20 0 -4 -12 -12 -27 -18 -42 -18 -86 -43 -101
-58 -7 -7 -20 -13 -28 -13 -8 0 -14 -4 -14 -9 0 -5 -14 -14 -30 -20 -17 -5
-38 -18 -47 -27 -16 -16 -18 -15 -27 7 -6 13 -15 29 -21 35 -6 6 -22 33 -35
60 -14 27 -31 55 -37 62 -7 7 -13 20 -13 28 0 8 -4 14 -9 14 -5 0 -15 16 -22
35 -7 19 -16 35 -19 35 -3 0 -19 26 -35 57 -17 32 -36 63 -42 71 -7 7 -13 20
-13 28 0 8 -4 14 -9 14 -5 0 -15 15 -22 33 -7 17 -19 38 -26 45 -7 7 -13 20
-13 28 0 8 -4 14 -9 14 -5 0 -15 16 -21 35 -6 19 -15 35 -19 35 -3 0 -12 12
-19 28 -15 36 -73 136 -81 142 -4 3 -13 20 -20 38 -8 17 -17 32 -22 32 -5 0
-9 5 -9 11 0 6 -18 41 -40 79 -36 61 -40 76 -40 134 l0 65 58 32 c31 19 57 31
58 29 0 -3 8 3 18 13 10 9 24 17 32 17 8 0 14 3 14 8 0 4 26 21 57 37 32 17
64 35 70 42 7 6 23 15 35 19 12 4 28 13 36 20 7 8 20 14 28 14 8 0 14 4 14 9
0 5 12 14 28 20 34 14 82 42 100 59 7 6 20 12 27 12 7 0 20 6 27 13 7 7 24 18
38 25 44 21 135 74 140 81 3 3 19 13 35 22 24 12 31 12 33 2 2 -7 7 -13 10
-13z m-4088 -321 c0 -5 5 -7 10 -4 6 3 10 1 10 -4 0 -6 6 -11 14 -11 8 0 21
-6 28 -12 7 -7 39 -26 71 -43 31 -16 57 -33 57 -37 0 -5 6 -8 14 -8 8 0 21 -6
28 -13 7 -7 18 -14 23 -16 9 -2 312 -174 355 -202 8 -5 26 -15 40 -21 14 -7
31 -18 38 -25 7 -7 19 -13 27 -13 7 0 15 -4 17 -8 3 -9 36 -29 96 -57 l32 -15
0 -510 0 -511 -22 12 c-27 14 -256 145 -278 160 -8 5 -26 15 -40 21 -14 7 -27
15 -30 19 -6 8 -57 35 -92 50 -16 6 -28 15 -28 19 0 5 -16 14 -35 20 -19 6
-35 16 -35 21 0 5 -6 9 -14 9 -8 0 -21 6 -28 13 -7 6 -39 26 -71 42 -31 17
-57 32 -57 35 0 4 -16 12 -35 19 -19 7 -35 16 -35 21 0 4 -11 11 -25 14 -14 4
-25 11 -25 16 0 6 -7 10 -15 10 -13 0 -15 63 -15 510 0 333 3 510 10 510 6 0
10 -5 10 -11z m-1002 -671 c2 -4 8 -8 14 -8 6 0 111 -58 233 -130 123 -71 228
-130 234 -130 6 0 11 -4 11 -8 0 -5 24 -21 53 -37 28 -15 70 -38 92 -51 22
-13 52 -29 68 -35 15 -6 27 -15 27 -19 0 -4 11 -11 25 -14 l25 -6 0 -515 0
-514 -62 38 c-35 21 -88 51 -118 67 -30 16 -57 32 -60 35 -3 4 -29 19 -58 35
-29 16 -69 39 -90 51 -20 13 -48 28 -62 35 -14 7 -27 15 -30 19 -6 8 -57 35
-92 50 -16 6 -28 14 -28 18 0 4 -16 13 -35 20 -19 7 -35 17 -35 22 0 5 -6 9
-14 9 -8 0 -21 6 -28 13 -7 6 -39 26 -71 42 -31 17 -57 33 -57 36 0 4 -9 9
-20 12 -20 5 -20 14 -20 516 l0 512 48 -28 c26 -15 49 -31 50 -35z m2092 41
c0 -5 3 -8 8 -7 12 3 62 -24 62 -34 0 -4 5 -8 11 -8 6 0 79 -40 163 -88 83
-49 158 -92 166 -96 8 -4 33 -18 55 -31 22 -14 51 -30 65 -37 14 -7 27 -15 30
-18 3 -3 16 -11 30 -18 58 -30 85 -45 90 -52 3 -3 20 -12 38 -19 17 -8 32 -17
32 -22 0 -5 6 -9 14 -9 8 0 21 -6 28 -14 8 -7 24 -17 36 -20 l22 -7 0 -510 c0
-280 -2 -509 -5 -509 -12 0 -55 24 -55 32 0 4 -6 8 -14 8 -8 0 -21 6 -28 13
-7 6 -35 23 -62 37 -27 13 -54 29 -60 35 -6 5 -27 18 -46 27 -19 10 -62 33
-95 53 -33 19 -71 41 -85 47 -14 7 -31 18 -38 25 -7 7 -24 16 -38 19 -13 3
-24 10 -24 15 0 5 -6 9 -14 9 -8 0 -21 6 -28 13 -15 15 -59 40 -100 58 -16 6
-28 14 -28 18 0 4 -16 13 -35 20 -19 7 -35 17 -35 22 0 5 -6 9 -14 9 -8 0 -21
6 -28 13 -7 7 -21 16 -30 20 -17 6 -18 40 -18 516 0 450 2 510 15 505 8 -4 15
-10 15 -15z m1940 -490 c0 -502 0 -511 -20 -516 -11 -3 -20 -9 -20 -13 0 -5
-12 -13 -27 -19 -36 -15 -87 -42 -93 -50 -3 -4 -16 -12 -30 -19 -14 -6 -32
-16 -40 -21 -8 -6 -49 -29 -90 -53 -41 -23 -76 -46 -78 -50 -2 -5 -8 -8 -13
-8 -6 0 -57 -27 -114 -60 -57 -33 -109 -60 -114 -60 -6 0 -11 -4 -11 -8 0 -4
-26 -21 -57 -37 -32 -17 -63 -36 -71 -42 -7 -7 -20 -13 -28 -13 -8 0 -14 -4
-14 -8 0 -8 -43 -32 -55 -32 -3 0 -5 229 -5 510 l0 510 25 6 c14 3 25 9 25 13
0 4 26 20 57 36 32 17 63 36 71 43 7 6 20 12 28 12 8 0 14 4 14 9 0 5 16 15
35 22 19 7 35 16 35 20 0 4 12 12 28 18 15 6 45 22 67 35 22 13 64 36 93 51
28 16 52 32 52 37 0 4 6 8 13 8 6 1 84 43 172 95 88 52 161 95 163 95 1 0 2
-230 2 -511z m2160 0 c0 -502 0 -511 -20 -516 -11 -3 -20 -9 -20 -13 0 -5 -12
-13 -27 -19 -42 -18 -86 -43 -101 -58 -7 -7 -20 -13 -28 -13 -8 0 -14 -4 -14
-9 0 -5 -16 -15 -35 -21 -19 -6 -35 -15 -35 -20 0 -4 -12 -13 -27 -19 -36 -15
-87 -42 -93 -50 -3 -4 -16 -12 -30 -19 -14 -6 -32 -16 -40 -21 -59 -39 -279
-161 -287 -161 -6 0 -13 -3 -15 -7 -1 -5 -27 -22 -55 -40 l-53 -32 0 438 0
439 33 13 c17 7 38 19 45 26 7 7 20 13 28 13 8 0 14 4 14 9 0 5 16 15 35 22
19 7 35 16 35 20 0 4 12 12 28 18 15 6 45 22 67 36 22 13 52 29 68 36 15 6 27
15 27 20 0 5 6 9 14 9 8 0 21 6 28 13 8 6 38 25 68 41 30 16 74 42 98 58 24
15 48 26 53 23 5 -3 6 0 3 8 -3 8 -1 18 5 22 13 7 15 85 2 85 -5 0 -11 8 -14
19 -3 14 5 24 34 40 21 12 40 21 42 19 2 -2 11 5 21 15 10 9 23 17 31 17 7 0
15 4 17 8 2 6 86 60 96 62 1 0 2 -230 2 -511z m-5102 -181 c2 -5 9 -8 14 -8 9
0 220 -118 288 -161 8 -5 26 -15 40 -21 14 -7 27 -15 30 -19 6 -8 57 -35 93
-50 15 -6 27 -15 27 -19 0 -5 16 -14 35 -20 19 -6 35 -16 35 -21 0 -5 6 -9 14
-9 8 0 21 -6 28 -12 18 -17 66 -45 101 -59 15 -6 27 -14 27 -19 0 -4 9 -10 20
-13 20 -5 20 -14 20 -516 l0 -512 -47 28 c-27 15 -50 30 -53 33 -3 4 -13 9
-22 13 -16 6 -362 204 -398 228 -8 5 -27 15 -42 22 -16 6 -28 15 -28 18 0 4
-16 13 -35 19 -19 6 -35 16 -35 21 0 5 -6 9 -14 9 -8 0 -21 6 -28 13 -15 15
-59 40 -100 58 -16 6 -28 15 -28 19 0 4 -11 11 -25 14 l-25 6 0 515 0 514 53
-32 c28 -18 54 -35 55 -39z m1109 -634 c50 -30 96 -54 102 -54 6 0 11 -4 11
-9 0 -5 16 -15 35 -21 19 -6 35 -15 35 -20 0 -4 8 -11 18 -14 9 -4 35 -18 57
-31 22 -14 52 -30 68 -36 15 -6 27 -14 27 -18 0 -4 16 -13 35 -20 19 -7 35
-17 35 -22 0 -5 6 -9 14 -9 8 0 21 -6 28 -12 8 -7 39 -26 71 -43 31 -16 57
-33 57 -37 0 -4 5 -8 12 -8 6 0 40 -17 75 -37 l63 -37 0 -508 c0 -285 -4 -508
-9 -508 -5 0 -14 7 -21 15 -7 8 -18 15 -26 15 -7 0 -19 6 -26 13 -7 6 -39 26
-71 42 -31 17 -57 33 -57 38 0 4 -6 7 -14 7 -8 0 -22 8 -32 18 -10 9 -19 16
-21 14 -2 -2 -66 33 -143 77 -76 45 -143 81 -148 81 -6 0 -12 3 -14 8 -1 4
-37 27 -78 50 -41 24 -82 47 -90 53 -8 5 -27 14 -42 20 -16 6 -28 15 -28 19 0
4 -13 13 -30 19 l-30 10 0 511 0 511 23 -12 c12 -7 63 -36 114 -65z m1833
-434 c0 -477 -1 -511 -17 -517 -10 -3 -102 -55 -204 -115 -102 -59 -191 -108
-197 -108 -7 0 -12 -3 -12 -7 0 -5 -26 -21 -57 -38 -32 -16 -64 -36 -71 -43
-7 -6 -20 -12 -28 -12 -8 0 -14 -5 -14 -11 0 -5 -4 -7 -10 -4 -5 3 -10 2 -10
-4 0 -6 -11 -13 -25 -17 -14 -3 -25 -10 -25 -14 0 -4 -12 -13 -27 -19 -35 -14
-83 -42 -101 -58 -7 -7 -19 -13 -26 -13 -8 0 -19 -7 -26 -15 -7 -8 -16 -15
-21 -15 -5 0 -9 223 -9 508 l0 508 63 37 c35 20 69 37 75 37 7 0 12 4 12 8 0
4 26 21 57 37 32 17 63 36 71 43 7 6 20 12 28 12 8 0 14 4 14 9 0 5 15 14 33
22 17 7 34 16 37 19 5 6 30 21 90 52 14 7 31 18 38 25 7 7 20 13 28 13 8 0 14
4 14 9 0 5 16 15 35 21 19 6 35 15 35 20 0 4 12 13 28 19 35 15 86 42 92 50 3
4 16 12 30 19 14 7 41 22 60 32 19 10 36 19 38 20 1 0 2 -230 2 -510z"/>
</g>
</svg>
