<?xml version="1.0" standalone="no"?>
<!DOCTYPE svg PUBLIC "-//W3C//DTD SVG 20010904//EN"
 "http://www.w3.org/TR/2001/REC-SVG-20010904/DTD/svg10.dtd">
<svg version="1.0" xmlns="http://www.w3.org/2000/svg"
 width="150.000000pt" height="150.000000pt" viewBox="0 0 150.000000 150.000000"
 preserveAspectRatio="xMidYMid meet">
<metadata>
Created by potrace 1.15, written by Peter Selinger 2001-2017
</metadata>
<g transform="translate(0.000000,150.000000) scale(0.100000,-0.100000)"
fill="#000000" stroke="none">
<path d="M620 1247 c-88 -30 -155 -71 -216 -131 -52 -53 -118 -171 -130 -232
-6 -34 -7 -34 -61 -34 l-54 0 46 -59 c82 -104 74 -103 145 -19 l61 73 -40 3
c-50 4 -51 13 -11 97 118 246 418 339 652 202 105 -61 197 -198 220 -327 41
-238 -137 -480 -386 -523 -180 -31 -390 72 -470 231 -14 29 -30 52 -34 52 -4
0 -16 -7 -27 -16 -20 -15 -19 -15 9 -69 36 -69 144 -171 218 -207 120 -59 235
-71 363 -38 130 33 226 100 299 208 63 94 89 175 89 287 2 245 -151 448 -384
510 -83 22 -211 19 -289 -8z"/>
<path d="M752 903 l3 -176 115 -69 c63 -37 120 -68 126 -68 6 0 16 11 22 24
10 22 5 26 -99 87 l-109 64 0 157 0 158 -30 0 -30 0 2 -177z"/>
</g>
</svg>
