<?xml version="1.0" standalone="no"?>
<!DOCTYPE svg PUBLIC "-//W3C//DTD SVG 20010904//EN"
 "http://www.w3.org/TR/2001/REC-SVG-20010904/DTD/svg10.dtd">
<svg version="1.0" xmlns="http://www.w3.org/2000/svg"
 width="901.000000pt" height="901.000000pt" viewBox="0 0 901.000000 901.000000"
 preserveAspectRatio="xMidYMid meet">
<metadata>
Created by potrace 1.15, written by Peter Selinger 2001-2017
</metadata>
<g transform="translate(0.000000,901.000000) scale(0.100000,-0.100000)"
fill="#ffffff" stroke="none">
<path d="M645 7576 c-40 -17 -88 -66 -109 -109 -13 -29 -16 -70 -16 -240 0
-162 -3 -211 -15 -233 -19 -37 -19 -72 1 -119 14 -35 16 -290 17 -2619 l2
-2581 23 -43 c37 -69 96 -127 161 -156 l59 -26 3748 2 3749 3 51 27 c57 30
112 87 146 150 l23 43 0 2150 0 2150 -27 51 c-35 66 -105 128 -174 154 -55 20
-65 20 -2719 20 l-2664 0 -3 623 -3 623 -35 49 c-20 28 -54 58 -79 72 l-44 23
-1031 0 c-832 -1 -1037 -3 -1061 -14z m1918 -558 c4 -133 7 -442 7 -688 l0
-447 53 -7 c28 -3 1286 -6 2795 -6 l2742 0 0 -2045 0 -2045 -3655 0 -3655 0
-2 1308 c-4 2040 3 3686 16 3694 8 6 8 8 0 8 -8 0 -12 67 -13 235 l-1 235 853
0 854 0 6 -242z"/>
</g>
</svg>
