<?xml version="1.0" standalone="no"?>
<!DOCTYPE svg PUBLIC "-//W3C//DTD SVG 20010904//EN"
 "http://www.w3.org/TR/2001/REC-SVG-20010904/DTD/svg10.dtd">
<svg version="1.0" xmlns="http://www.w3.org/2000/svg"
 width="1027.000000pt" height="1026.000000pt" viewBox="0 0 1027.000000 1026.000000"
 preserveAspectRatio="xMidYMid meet">
<metadata>
Created by potrace 1.15, written by Peter Selinger 2001-2017
</metadata>
<g transform="translate(0.000000,1026.000000) scale(0.100000,-0.100000)"
fill="#000000" stroke="none">
<path d="M4045 8295 c-404 -53 -781 -208 -1113 -458 -124 -93 -346 -315 -439
-439 -316 -420 -473 -889 -473 -1413 0 -292 35 -504 130 -779 111 -321 291
-605 545 -860 307 -309 644 -505 1047 -610 207 -55 301 -67 543 -73 265 -7
413 9 642 67 321 82 620 230 870 433 l82 66 101 -109 100 -108 -12 -45 c-9
-35 -9 -54 0 -84 9 -30 209 -250 929 -1023 826 -886 923 -986 962 -999 76 -24
99 -10 309 185 104 96 194 186 201 200 15 33 14 103 -2 132 -24 42 -1829 1972
-1860 1988 -21 11 -47 15 -84 12 l-53 -5 -116 124 -116 123 63 98 c185 285
311 630 354 972 21 166 16 520 -9 670 -66 385 -212 723 -448 1038 -96 128
-328 358 -456 452 -344 253 -716 400 -1142 450 -116 14 -433 11 -555 -5z m565
-481 c857 -123 1523 -842 1579 -1702 21 -327 -39 -637 -179 -928 -288 -597
-884 -1001 -1538 -1043 -581 -37 -1129 189 -1514 625 -300 339 -458 757 -458
1213 0 384 101 721 308 1031 399 594 1097 905 1802 804z"/>
</g>
</svg>
