<?xml version="1.0" standalone="no"?>
<!DOCTYPE svg PUBLIC "-//W3C//DTD SVG 20010904//EN"
 "http://www.w3.org/TR/2001/REC-SVG-20010904/DTD/svg10.dtd">
<svg version="1.0" xmlns="http://www.w3.org/2000/svg"
 width="1027.000000pt" height="1026.000000pt" viewBox="0 0 1027.000000 1026.000000"
 preserveAspectRatio="xMidYMid meet">
<metadata>
Created by potrace 1.15, written by Peter Selinger 2001-2017
</metadata>
<g transform="translate(0.000000,1026.000000) scale(0.100000,-0.100000)"
fill="#000000" stroke="none">
<path d="M4579 8806 c-96 -36 -168 -95 -217 -177 -47 -79 -52 -127 -52 -537 0
-268 -4 -397 -12 -424 -17 -57 -87 -131 -150 -158 -61 -26 -151 -24 -208 5
-19 10 -163 145 -320 300 -171 169 -301 290 -325 302 -69 34 -130 46 -213 41
-145 -8 -150 -12 -550 -411 -296 -296 -358 -362 -383 -412 -38 -78 -51 -157
-38 -237 20 -122 40 -149 350 -463 318 -322 327 -335 316 -440 -7 -65 -49
-148 -92 -181 -78 -59 -74 -58 -535 -64 l-425 -5 -57 -27 c-74 -34 -152 -112
-186 -186 l-27 -57 0 -545 0 -545 27 -57 c34 -74 112 -152 186 -186 l57 -27
425 -5 c404 -5 427 -6 470 -26 90 -41 148 -125 157 -225 10 -107 -10 -135
-326 -454 -198 -198 -286 -295 -305 -330 -52 -103 -53 -230 -1 -343 22 -48 79
-110 378 -410 419 -420 415 -417 587 -417 167 0 169 1 509 339 158 156 302
292 321 302 52 27 171 26 226 -3 45 -24 108 -89 127 -131 8 -19 13 -154 17
-452 5 -415 6 -426 29 -483 32 -81 113 -166 193 -203 l63 -29 540 0 540 0 65
31 c95 46 153 108 193 206 21 51 22 71 27 478 5 412 6 426 27 465 25 47 74 96
123 121 49 26 172 26 220 0 19 -10 163 -146 320 -301 171 -169 301 -290 325
-302 69 -34 130 -46 214 -41 145 8 155 16 561 425 252 253 362 371 377 403 49
103 48 245 -3 345 -19 35 -107 132 -304 330 -299 300 -330 341 -330 432 0 99
68 205 159 247 44 20 65 21 471 26 l425 5 57 27 c74 34 152 112 186 186 l27
57 0 545 0 545 -27 57 c-34 74 -112 152 -186 186 l-57 27 -425 5 c-406 5 -427
6 -471 26 -130 61 -194 226 -134 345 10 19 144 162 299 319 305 309 326 337
345 458 13 82 -2 170 -40 242 -23 43 -114 140 -382 408 -399 397 -404 402
-549 410 -83 5 -144 -7 -213 -41 -24 -12 -154 -132 -325 -303 -206 -204 -298
-289 -330 -303 -119 -54 -267 1 -333 124 -21 39 -22 53 -27 465 -5 407 -6 427
-27 478 -40 98 -98 160 -193 206 l-65 31 -530 2 c-419 1 -537 -1 -566 -11z
m1047 -282 c53 -36 54 -41 54 -466 0 -429 2 -447 60 -564 32 -66 109 -151 177
-198 119 -80 324 -110 459 -66 38 12 89 33 114 47 25 14 171 150 325 303 154
153 290 283 302 289 12 6 37 11 55 11 30 0 63 -31 370 -338 l338 -337 0 -44 0
-44 -288 -291 c-263 -266 -291 -297 -324 -366 -47 -96 -63 -178 -55 -283 17
-225 148 -398 361 -476 l71 -26 400 -3 c220 -1 411 -5 423 -8 13 -2 35 -17 48
-31 l24 -26 0 -478 0 -477 -31 -31 -31 -31 -376 0 c-272 -1 -398 -4 -453 -14
-166 -30 -303 -133 -378 -286 -82 -168 -83 -324 -3 -490 33 -69 60 -99 324
-366 l288 -291 0 -44 0 -44 -338 -337 -337 -338 -44 0 -44 0 -296 293 c-313
311 -336 329 -462 362 -71 19 -200 19 -273 0 -144 -38 -282 -145 -344 -266
-60 -118 -62 -135 -62 -567 0 -329 -2 -398 -15 -422 -32 -62 -14 -60 -528 -60
-424 0 -470 2 -494 17 -51 34 -53 51 -53 470 0 414 -2 436 -52 545 -54 117
-173 223 -303 270 -73 26 -226 35 -308 18 -127 -26 -159 -51 -478 -367 l-296
-293 -44 0 -44 0 -337 338 -338 337 0 44 0 44 288 291 c312 316 336 347 368
482 21 90 14 225 -16 312 -54 154 -173 272 -334 331 l-71 26 -405 3 c-265 2
-415 7 -433 14 -57 22 -57 25 -57 527 0 306 4 468 11 484 23 52 24 52 469 57
l415 5 71 26 c137 50 245 144 304 264 80 163 81 332 2 495 -33 69 -60 99 -324
366 l-288 291 0 44 0 44 338 337 337 338 44 0 44 0 296 -293 c262 -261 303
-297 361 -324 104 -47 148 -56 263 -51 209 11 372 111 458 283 57 115 59 135
59 557 0 240 4 397 10 415 6 15 23 38 38 50 l27 23 468 0 c418 0 470 -2 493
-16z"/>
<path d="M4898 6340 c-547 -115 -937 -548 -988 -1097 -59 -640 372 -1206 1009
-1327 108 -21 323 -21 430 -1 368 70 669 281 855 600 155 267 203 613 125 917
-120 473 -493 820 -980 913 -114 21 -338 19 -451 -5z m381 -270 c107 -18 242
-67 335 -122 546 -325 630 -1073 170 -1509 -124 -117 -251 -186 -434 -235 -95
-26 -328 -26 -430 0 -650 165 -938 900 -571 1456 76 115 207 234 341 308 65
36 215 88 291 101 76 12 222 13 298 1z"/>
</g>
</svg>
