<?xml version="1.0" standalone="no"?>
<!DOCTYPE svg PUBLIC "-//W3C//DTD SVG 20010904//EN"
 "http://www.w3.org/TR/2001/REC-SVG-20010904/DTD/svg10.dtd">
<svg version="1.0" xmlns="http://www.w3.org/2000/svg"
 width="1027.000000pt" height="1026.000000pt" viewBox="0 0 1027.000000 1026.000000"
 preserveAspectRatio="xMidYMid meet">
<metadata>
Created by potrace 1.15, written by Peter Selinger 2001-2017
</metadata>
<g transform="translate(0.000000,1026.000000) scale(0.100000,-0.100000)"
fill="#000000" stroke="none">
<path d="M3310 8879 c-60 -27 -117 -83 -146 -144 l-24 -50 0 -3550 0 -3550 24
-50 c29 -61 86 -117 146 -144 45 -20 57 -21 1735 -21 1678 0 1690 1 1735 21
60 27 117 83 146 144 l24 50 0 818 0 817 -160 0 -160 0 0 -765 0 -765 -1585 0
-1585 0 0 3445 0 3445 1585 0 1585 0 0 -735 0 -735 160 0 160 0 0 788 c0 770
-1 788 -21 832 -27 60 -83 117 -144 146 l-50 24 -1690 0 c-1678 0 -1690 -1
-1735 -21z"/>
<path d="M7517 6243 l-117 -118 397 -397 398 -398 -1711 0 c-1645 0 -1712 -1
-1727 -18 -14 -15 -17 -42 -17 -149 0 -113 2 -132 18 -146 17 -16 151 -17
1728 -17 l1709 0 -400 -400 -400 -400 115 -115 c63 -63 119 -115 125 -115 5 0
278 268 605 595 l595 595 -600 600 -600 600 -118 -117z"/>
</g>
</svg>
