<?xml version="1.0" standalone="no"?>
<!DOCTYPE svg PUBLIC "-//W3C//DTD SVG 20010904//EN"
 "http://www.w3.org/TR/2001/REC-SVG-20010904/DTD/svg10.dtd">
<svg version="1.0" xmlns="http://www.w3.org/2000/svg"
 width="907.000000pt" height="907.000000pt" viewBox="0 0 907.000000 907.000000"
 preserveAspectRatio="xMidYMid meet">
<metadata>
Created by potrace 1.15, written by Peter Selinger 2001-2017
</metadata>
<g transform="translate(0.000000,907.000000) scale(0.100000,-0.100000)"
fill="#000000" stroke="none">
<path d="M756 7605 c-104 -42 -177 -117 -215 -220 l-21 -56 2 -2812 3 -2812
32 -66 c39 -79 102 -140 181 -177 l57 -27 3740 0 3740 0 66 32 c79 39 140 102
177 181 l27 57 0 2825 0 2825 -27 57 c-37 79 -98 142 -177 181 l-66 32 -3730
2 -3730 3 -59 -25z m1824 -942 c0 -629 1 -649 20 -681 11 -18 34 -41 52 -52
33 -20 57 -20 2806 -20 l2772 0 0 -2055 0 -2056 -25 -24 -24 -25 -3646 0
-3646 0 -24 25 -25 24 0 2720 c0 1762 3 2729 10 2746 5 14 20 30 32 35 13 5
382 9 861 9 l837 1 0 -647z m1880 107 l0 -540 -780 0 -780 0 0 540 0 540 780
0 780 0 0 -540z m1890 0 l0 -540 -785 0 -785 0 0 540 0 540 785 0 785 0 0
-540z m1861 511 c18 -22 19 -46 19 -537 l0 -514 -780 0 -780 0 0 540 0 540
761 -2 761 -3 19 -24z"/>
</g>
</svg>
