<?xml version="1.0" standalone="no"?>
<!DOCTYPE svg PUBLIC "-//W3C//DTD SVG 20010904//EN"
 "http://www.w3.org/TR/2001/REC-SVG-20010904/DTD/svg10.dtd">
<svg version="1.0" xmlns="http://www.w3.org/2000/svg"
 width="1027.000000pt" height="1026.000000pt" viewBox="0 0 1027.000000 1026.000000"
 preserveAspectRatio="xMidYMid meet">
<metadata>
Created by potrace 1.15, written by Peter Selinger 2001-2017
</metadata>
<g transform="translate(0.000000,1026.000000) scale(0.100000,-0.100000)"
fill="#000000" stroke="none">
<path d="M3690 8622 c-383 -201 -504 -274 -724 -441 -665 -501 -1152 -1243
-1351 -2055 -83 -342 -109 -581 -102 -966 5 -302 19 -439 72 -695 179 -870
682 -1661 1400 -2205 455 -345 999 -587 1550 -689 275 -51 343 -56 705 -56
307 0 362 3 500 23 396 58 767 170 1108 332 681 325 1260 868 1632 1530 79
141 280 528 280 540 0 6 -132 -57 -293 -138 -407 -207 -641 -296 -962 -368
-580 -130 -1234 -98 -1790 88 -1175 393 -2040 1361 -2290 2563 -74 359 -86
837 -29 1193 68 424 163 697 415 1189 76 149 139 274 139 277 0 13 -22 2 -260
-122z m-475 -742 c-73 -227 -132 -523 -155 -775 -22 -238 -12 -625 21 -860
187 -1336 1093 -2471 2361 -2959 583 -224 1253 -298 1873 -205 207 31 455 89
614 144 41 14 76 25 78 25 9 0 -91 -133 -173 -228 -541 -634 -1272 -1041
-2094 -1166 -390 -59 -836 -45 -1230 40 -581 125 -1148 421 -1593 832 -494
455 -849 1061 -1005 1712 -27 113 -38 170 -72 395 -18 117 -24 515 -11 665 46
504 184 959 425 1395 64 115 218 342 316 465 104 130 291 323 425 439 106 92
248 202 253 196 2 -2 -13 -54 -33 -115z"/>
</g>
</svg>
