<?xml version="1.0" standalone="no"?>
<!DOCTYPE svg PUBLIC "-//W3C//DTD SVG 20010904//EN"
 "http://www.w3.org/TR/2001/REC-SVG-20010904/DTD/svg10.dtd">
<svg version="1.0" xmlns="http://www.w3.org/2000/svg"
 width="1026.000000pt" height="1026.000000pt" viewBox="0 0 1026.000000 1026.000000"
 preserveAspectRatio="xMidYMid meet">
<metadata>
Created by potrace 1.15, written by Peter Selinger 2001-2017
</metadata>
<g transform="translate(0.000000,1026.000000) scale(0.100000,-0.100000)"
fill="#ffffff" stroke="none">
<path d="M5052 8510 c-18 -11 -41 -34 -52 -52 -19 -32 -20 -52 -20 -543 0
-491 1 -511 20 -543 29 -47 76 -72 135 -72 59 0 106 25 135 72 19 32 20 52 20
543 0 491 -1 511 -20 543 -29 47 -76 72 -135 72 -32 0 -62 -7 -83 -20z"/>
<path d="M2770 7557 c-70 -37 -99 -124 -69 -204 13 -36 683 -708 725 -728 43
-20 112 -19 154 4 63 33 96 127 70 198 -14 37 -696 721 -737 739 -47 20 -94
17 -143 -9z"/>
<path d="M7335 7566 c-40 -19 -721 -704 -735 -739 -27 -73 5 -164 70 -198 42
-23 111 -24 154 -4 42 20 712 692 725 728 52 138 -83 272 -214 213z"/>
<path d="M4890 6665 c-338 -58 -612 -196 -849 -428 -302 -296 -461 -678 -461
-1109 0 -620 356 -1170 918 -1417 207 -91 402 -131 640 -131 746 0 1363 499
1524 1231 20 90 23 132 23 319 0 187 -3 229 -23 319 -72 329 -226 599 -472
827 -224 207 -496 337 -820 390 -105 17 -377 16 -480 -1z m487 -355 c400 -83
754 -388 893 -768 65 -177 89 -416 61 -593 -87 -545 -553 -977 -1095 -1017
-368 -27 -693 94 -952 352 -256 257 -380 589 -352 942 37 463 349 871 791
1034 197 72 450 92 654 50z"/>
<path d="M1832 5270 c-48 -30 -72 -75 -72 -140 0 -65 24 -110 72 -140 32 -19
52 -20 548 -20 496 0 516 1 548 20 48 30 72 75 72 140 0 65 -24 110 -72 140
-32 19 -52 20 -548 20 -496 0 -516 -1 -548 -20z"/>
<path d="M7342 5270 c-48 -30 -72 -75 -72 -140 0 -65 24 -110 72 -140 32 -19
52 -20 548 -20 496 0 516 1 548 20 48 30 72 75 72 140 0 65 -24 110 -72 140
-32 19 -52 20 -548 20 -496 0 -516 -1 -548 -20z"/>
<path d="M3446 3665 c-30 -10 -123 -97 -384 -357 -189 -189 -350 -355 -358
-370 -18 -35 -18 -111 1 -148 8 -16 31 -41 50 -56 46 -35 126 -38 177 -6 18
12 184 173 369 359 360 361 367 371 356 456 -13 96 -117 157 -211 122z"/>
<path d="M6726 3670 c-34 -11 -73 -45 -92 -82 -18 -35 -18 -111 0 -146 8 -15
171 -183 363 -374 304 -302 353 -348 391 -358 47 -12 100 -2 141 26 28 20 60
88 61 128 0 64 -38 109 -382 453 -288 286 -349 343 -383 352 -46 12 -59 13
-99 1z"/>
<path d="M5052 2990 c-18 -11 -41 -34 -52 -52 -19 -32 -20 -52 -20 -548 0
-496 1 -516 20 -548 60 -97 210 -97 270 0 19 32 20 52 20 548 0 496 -1 516
-20 548 -29 47 -76 72 -135 72 -32 0 -62 -7 -83 -20z"/>
</g>
</svg>
